<svg preserveAspectRatio="none" width="100%" height="100%" overflow="visible" style="display: block;" viewBox="0 0 26 25.9998" fill="none" xmlns="http://www.w3.org/2000/svg">
<g id="Group">
<path id="Vector" d="M12.9603 16.408L13.3426 25.9998L12.4679 25.9763L12.9603 16.408Z" fill="var(--fill-0, #B56B4B)"/>
<path id="Vector_2" d="M13.6435 16.408L15.8827 25.6807L15.0204 25.8291L13.6435 16.408Z" fill="var(--fill-0, #B56B4B)"/>
<path id="Vector_3" d="M14.3887 16.408L18.3104 24.8693L17.4952 25.1847L14.3887 16.408Z" fill="var(--fill-0, #B56B4B)"/>
<path id="Vector_4" d="M15.2761 16.408L20.5327 23.6003L19.7941 24.0678L15.2761 16.408Z" fill="var(--fill-0, #B56B4B)"/>
<path id="Vector_5" d="M16.0657 16.1222L22.4642 21.9193L21.8308 22.5229L16.0657 16.1222Z" fill="var(--fill-0, #B56B4B)"/>
<path id="Vector_6" d="M16.0657 15.2663L24.028 19.8933L23.5257 20.6095L16.0657 15.2663Z" fill="var(--fill-0, #B56B4B)"/>
<path id="Vector_7" d="M16.0657 14.2955L25.1649 17.6004L24.8123 18.4007L16.0657 14.2955Z" fill="var(--fill-0, #B56B4B)"/>
<path id="Vector_8" d="M16.0657 13.6859L25.8317 15.1293L25.6425 15.9839L16.0657 13.6859Z" fill="var(--fill-0, #B56B4B)"/>
<path id="Vector_9" d="M16.0657 13.0687L26 12.5752L25.9827 13.4497L16.0657 13.0687Z" fill="var(--fill-0, #B56B4B)"/>
<path id="Vector_10" d="M16.0657 12.4601L25.666 10.0384L25.8194 10.8992L16.0657 12.4601Z" fill="var(--fill-0, #B56B4B)"/>
<path id="Vector_11" d="M15.4208 12.0482L24.8417 7.61535L25.1608 8.42921L15.4208 12.0482Z" fill="var(--fill-0, #B56B4B)"/>
<path id="Vector_12" d="M15.9728 11.0104L23.5577 5.40132L24.0303 6.13725L15.1872 11.5918L15.9728 11.0104Z" fill="var(--fill-0, #B56B4B)"/>
<path id="Vector_13" d="M14.8698 11.1909L21.8659 3.48038L22.4733 4.10993L14.8698 11.1909Z" fill="var(--fill-0, #B56B4B)"/>
<path id="Vector_14" d="M14.4801 10.8597L19.8307 1.9284L20.5495 2.42685L14.4801 10.8597Z" fill="var(--fill-0, #B56B4B)"/>
<path id="Vector_15" d="M14.098 10.4634L17.5286 0.804873L18.3315 1.15242L14.098 10.4634Z" fill="var(--fill-0, #B56B4B)"/>
<path id="Vector_16" d="M13.6092 10.0159L15.0542 0.153294L15.9103 0.337583L13.6092 10.0159Z" fill="var(--fill-0, #B56B4B)"/>
<path id="Vector_17" d="M13.0613 9.51631L12.4997 0L13.3743 0.0123655L13.0613 9.51631Z" fill="var(--fill-0, #B56B4B)"/>
<path id="Vector_18" d="M12.4548 10.0158L9.96317 0.348589L10.823 0.190269L12.4548 10.0158Z" fill="var(--fill-0, #B56B4B)"/>
<path id="Vector_19" d="M11.9774 10.4317L7.54474 1.18748L8.35755 0.86343L11.9774 10.4317Z" fill="var(--fill-0, #B56B4B)"/>
<path id="Vector_20" d="M11.5797 10.8163L5.33832 2.48361L6.07071 2.00742L11.5797 10.8163Z" fill="var(--fill-0, #B56B4B)"/>
<path id="Vector_21" d="M11.1796 11.1364L3.42643 4.18659L4.05242 3.57559L11.1796 11.1364Z" fill="var(--fill-0, #B56B4B)"/>
<path id="Vector_22" d="M10.7581 11.4617L1.8865 6.23108L2.38012 5.50875L10.7581 11.4617Z" fill="var(--fill-0, #B56B4B)"/>
<path id="Vector_23" d="M10.2299 11.8467L0.775675 8.53813L1.11837 7.73294L10.2299 11.8467Z" fill="var(--fill-0, #B56B4B)"/>
<path id="Vector_24" d="M9.81036 12.376L0.138377 11.0168L0.316526 10.1596L9.81036 12.376Z" fill="var(--fill-0, #B56B4B)"/>
<path id="Vector_25" d="M9.81054 12.9584L0 13.5718L0.00742256 12.6974L9.81054 12.9584Z" fill="var(--fill-0, #B56B4B)"/>
<path id="Vector_26" d="M9.97826 13.5492L0.531432 15.924L0.36689 15.0644L9.97826 13.5492Z" fill="var(--fill-0, #B56B4B)"/>
<path id="Vector_27" d="M9.80967 14.3511L1.21647 18.518L0.887392 17.7079L9.80967 14.3511Z" fill="var(--fill-0, #B56B4B)"/>
<path id="Vector_28" d="M9.76125 15.2342L2.52644 20.7172L2.04519 19.9874L9.76125 15.2342Z" fill="var(--fill-0, #B56B4B)"/>
<path id="Vector_29" d="M9.86094 16.2757L4.2406 22.6182L3.62574 21.9961L9.86094 16.2757Z" fill="var(--fill-0, #B56B4B)"/>
<path id="Vector_30" d="M10.6577 16.408L6.29433 24.1457L5.56937 23.656L10.6577 16.408Z" fill="var(--fill-0, #B56B4B)"/>
<path id="Vector_31" d="M11.5411 16.4179L8.60907 25.2415L7.80245 24.9039L11.5411 16.4179Z" fill="var(--fill-0, #B56B4B)"/>
<path id="Vector_32" d="M12.2885 16.408L11.0909 25.8637L10.2336 25.6906L12.2885 16.408Z" fill="var(--fill-0, #B56B4B)"/>
</g>
</svg>
