<svg preserveAspectRatio="none" width="100%" height="100%" overflow="visible" style="display: block;" viewBox="0 0 74.3732 14.0001" fill="none" xmlns="http://www.w3.org/2000/svg">
<g id="Group 5698">
<path id="Vector" d="M17.5 0.437728H19.25V14.0001H17.5V0.437728V0.437728Z" fill="var(--fill-0, #0F392A)"/>
<path id="Vector_2" d="M38.0606 13.613V14.0001H27.9982V0.437728H37.8557V0.824805H29.8147V8.76264H36.3204V9.14972H29.8147V13.6121H38.0606V13.613Z" fill="var(--fill-0, #0F392A)"/>
<path id="Vector_3" d="M55.5606 0.437728V14.0001H54.8893L44.6597 1.83286V14.0001H44.1857V0.437728H45.6666L55.0866 11.6749V0.437728H55.5606V0.437728Z" fill="var(--fill-0, #0F392A)"/>
<path id="Vector_4" d="M70.6359 9.60284L67.4062 2.22085L64.1563 9.60284L64.0006 9.98992L62.2301 14.0001H61.6857L67.6595 0.437728H68.4186L74.3731 14.0001H72.5639L70.8127 9.98992L70.6377 9.60284H70.6359Z" fill="var(--fill-0, #0F392A)"/>
<path id="Vector_5" d="M0.000934047 10.2662H0.43457C0.43457 12.1524 2.36818 13.5716 4.81486 13.5716C7.06434 13.5716 8.66244 12.483 8.66244 10.9855C8.66244 9.35259 6.8279 8.5937 4.71673 7.77771C2.72424 6.98014 0.316816 6.02784 0.316816 3.67473C0.316816 1.51686 2.34948 0 5.09149 0C7.59704 0 9.53065 1.51686 9.53065 3.51908H9.09701C9.09701 1.74987 7.45966 0.427338 5.28868 0.427338C3.11769 0.427338 1.67754 1.55554 1.67754 3.0328C1.67754 4.70531 3.65039 5.50196 5.60362 6.26085C7.89236 7.11644 10.0624 7.9527 10.0624 10.2662C10.0624 12.5797 7.97087 13.9999 5.0513 13.9999C2.13173 13.9999 0 12.3863 0 10.2662H0.000934047Z" fill="var(--fill-0, #0F392A)"/>
</g>
</svg>
