<svg preserveAspectRatio="none" width="100%" height="100%" overflow="visible" style="display: block;" viewBox="0 0 23.9422 18.7499" fill="none" xmlns="http://www.w3.org/2000/svg">
<g id="Container">
<path id="Icon" d="M19.423 10.3365V8.46152H23.9422V10.3365H19.423V10.3365M20.8509 18.7499L17.2356 16.0384L18.375 14.5432L21.9903 17.2548L20.8509 18.7499V18.7499M18.3269 4.20667L17.1875 2.71152L20.8028 0L21.9422 1.49516L18.3269 4.20667V4.20667M3.53364 17.4999V12.6201H2.2596C1.63621 12.6201 1.10376 12.3994 0.662254 11.9579C0.220751 11.5164 0 10.9839 0 10.3605V8.43748C0 7.81408 0.220751 7.28164 0.662254 6.84013C1.10376 6.39863 1.63621 6.17788 2.2596 6.17788H7.09132L12.6922 2.83656V15.9614L7.09132 12.6201H5.40859V17.4999H3.53364V17.4999M10.8173 12.6298V6.16821L7.61053 8.05283H2.2596C2.16344 8.05283 2.07529 8.0929 1.99516 8.17303C1.91502 8.25317 1.87495 8.34132 1.87495 8.43748V10.3605C1.87495 10.4567 1.91502 10.5448 1.99516 10.625C2.07529 10.7051 2.16344 10.7452 2.2596 10.7452H7.61053L10.8173 12.6298V12.6298M14.423 13.298V5.49998C14.9134 5.94388 15.3084 6.50317 15.6081 7.17785C15.9078 7.85253 16.0576 8.59291 16.0576 9.39899C16.0576 10.2051 15.9078 10.9455 15.6081 11.6201C15.3084 12.2948 14.9134 12.8541 14.423 13.298V13.298M6.34612 9.39899V9.39899V9.39899V9.39899V9.39899V9.39899V9.39899V9.39899V9.39899V9.39899V9.39899V9.39899" fill="var(--fill-0, #B5913A)"/>
</g>
</svg>
