<svg preserveAspectRatio="none" width="100%" height="100%" overflow="visible" style="display: block;" viewBox="0 0 22.0023 21.2691" fill="none" xmlns="http://www.w3.org/2000/svg">
<g id="Container">
<path id="Icon" d="M20.0192 21.2691L13.1274 14.3773L15.1033 12.4014L21.9951 19.2932L20.0192 21.2691V21.2691M2.7091 21.2691L0.733181 19.2932L9.39424 10.6322L6.47591 7.72586L5.69707 8.5047L4.30767 7.10327V9.50951L3.52883 10.2883L0 6.75952L0.778839 5.98068H3.18508L1.80288 4.6105L5.37493 1.03845C5.72749 0.685889 6.1093 0.427879 6.52035 0.26442C6.9314 0.10096 7.35888 0.0192299 7.80279 0.0192299C8.24669 0.0192299 8.67417 0.10096 9.08523 0.26442C9.49628 0.427879 9.87808 0.685889 10.2306 1.03845L7.76433 3.50476L9.23067 4.9711L8.45183 5.74994L11.3702 8.65625L14.375 5.65143C14.2355 5.39822 14.1338 5.1366 14.0697 4.86657C14.0056 4.59653 13.9735 4.31248 13.9735 4.0144C13.9735 2.8894 14.3613 1.93909 15.137 1.16345C15.9126 0.387818 16.8629 0 17.9879 0C18.2523 0 18.5051 0.0232366 18.7463 0.0697098C18.9875 0.116183 19.2299 0.193906 19.4735 0.302879L16.6322 3.14421L18.8581 5.37017L21.6994 2.52884C21.8212 2.77243 21.9022 3.01481 21.9422 3.25599C21.9823 3.49718 22.0023 3.74998 22.0023 4.0144C22.0023 5.13939 21.6145 6.0897 20.8389 6.86534C20.0632 7.64098 19.1129 8.02879 17.9879 8.02879C17.6898 8.02879 17.4058 7.99995 17.1358 7.94225C16.8657 7.88456 16.6041 7.77959 16.3509 7.62734L2.7091 21.2691V21.2691" fill="var(--fill-0, #B5913A)"/>
</g>
</svg>
