<svg preserveAspectRatio="none" width="100%" height="100%" overflow="visible" style="display: block;" viewBox="0 0 29.0466 7.78321" fill="none" xmlns="http://www.w3.org/2000/svg">
<g id="DST1">
<path id="Vector" d="M28.4737 0.107811H29.0466V7.67482H28.0845V0.832082C27.7494 1.19962 27.1332 1.52392 26.5171 1.65364L26.4414 1.43744C27.1657 1.25367 28.0413 0.680742 28.4737 0.107811Z" fill="var(--fill-0, #0F392A)"/>
<path id="Vector_2" d="M21.7814 0.107811V0.324012H19.241V7.67482H18.2789V0.324012H15.717V0.107811H21.7814Z" fill="var(--fill-0, #0F392A)"/>
<path id="Vector_3" d="M11.4254 7.78321C9.87961 7.78321 8.65808 6.88598 8.65808 5.70769H8.8959C8.8959 6.75626 9.95528 7.54539 11.2957 7.54539C12.5281 7.54539 13.4037 6.94003 13.4037 6.10766C13.4037 5.19962 12.3983 4.77803 11.2417 4.32401C10.1499 3.8808 8.83104 3.3511 8.83104 2.04309C8.83104 0.843181 9.94447 2.98023e-08 11.4471 2.98023e-08C12.8199 2.98023e-08 13.8793 0.843181 13.8793 1.95661H13.6415C13.6415 0.972902 12.7443 0.23782 11.5552 0.23782C10.4201 0.23782 9.57693 0.864801 9.57693 1.68636C9.57693 2.61602 10.6579 3.05923 11.7281 3.48083C12.9821 3.95647 14.1712 4.4213 14.1712 5.70769C14.1712 6.97246 13.0253 7.78321 11.4254 7.78321Z" fill="var(--fill-0, #0F392A)"/>
<path id="Vector_4" d="M2.8106 0C5.12395 0 6.85355 1.63231 6.85355 3.78351C6.85355 5.9347 5.12395 7.56701 2.8106 7.56701H0V0H2.8106ZM2.67007 7.35081C4.58345 7.35081 5.84822 5.9347 5.84822 3.78351C5.84822 1.63231 4.58345 0.216201 2.67007 0.216201H0.962091V7.35081H2.67007Z" fill="var(--fill-0, #0F392A)"/>
</g>
</svg>
