<svg preserveAspectRatio="none" width="100%" height="100%" overflow="visible" style="display: block;" viewBox="0 0 23.7499 23.7499" fill="none" xmlns="http://www.w3.org/2000/svg">
<g id="Container">
<path id="Icon" d="M5.93748 12.8124H17.8124V10.9375H5.93748V12.8124V12.8124M11.877 23.7499C10.2346 23.7499 8.69084 23.4382 7.24566 22.8149C5.80049 22.1916 4.54339 21.3457 3.47436 20.2771C2.40532 19.2085 1.55901 17.952 0.935403 16.5075C0.311801 15.0629 0 13.5195 0 11.877C0 10.2346 0.311663 8.69084 0.934988 7.24566C1.55831 5.80049 2.40425 4.54339 3.47281 3.47436C4.54137 2.40532 5.79792 1.55901 7.24245 0.935404C8.68698 0.311801 10.2305 0 11.8729 0C13.5153 0 15.0591 0.311663 16.5042 0.934988C17.9494 1.55831 19.2065 2.40425 20.2756 3.47281C21.3446 4.54137 22.1909 5.79792 22.8145 7.24245C23.4381 8.68698 23.7499 10.2305 23.7499 11.8729C23.7499 13.5153 23.4382 15.0591 22.8149 16.5042C22.1916 17.9494 21.3457 19.2065 20.2771 20.2756C19.2085 21.3446 17.952 22.1909 16.5075 22.8145C15.0629 23.4381 13.5195 23.7499 11.877 23.7499V23.7499M11.875 21.875C14.6666 21.875 17.0312 20.9062 18.9687 18.9687C20.9062 17.0312 21.875 14.6666 21.875 11.875C21.875 9.08329 20.9062 6.7187 18.9687 4.7812C17.0312 2.8437 14.6666 1.87495 11.875 1.87495C9.08329 1.87495 6.7187 2.8437 4.7812 4.7812C2.8437 6.7187 1.87495 9.08329 1.87495 11.875C1.87495 14.6666 2.8437 17.0312 4.7812 18.9687C6.7187 20.9062 9.08329 21.875 11.875 21.875V21.875M11.875 11.875V11.875V11.875V11.875V11.875V11.875V11.875V11.875V11.875V11.875" fill="var(--fill-0, #5F5F5F)"/>
</g>
</svg>
