<svg preserveAspectRatio="none" width="100%" height="100%" overflow="visible" style="display: block;" viewBox="0 0 97.2555 18.3076" fill="none" xmlns="http://www.w3.org/2000/svg">
<g id="Group 5698">
<path id="Vector" d="M22.8843 0.572426H25.1727V18.3076H22.8843V0.572426V0.572426Z" fill="var(--fill-0, #0F392A)"/>
<path id="Vector_2" d="M49.7707 17.8014V18.3076H36.6123V0.572426H49.5028V1.0786H38.9877V11.4587H47.495V11.9649H38.9877V17.8002H49.7707V17.8014Z" fill="var(--fill-0, #0F392A)"/>
<path id="Vector_3" d="M72.6549 0.572426V18.3076H71.7771L58.4001 2.3968V18.3076H57.7803V0.572426H59.7168L72.0351 15.267V0.572426H72.6549V0.572426Z" fill="var(--fill-0, #0F392A)"/>
<path id="Vector_4" d="M92.3685 12.5574L88.1451 2.90417L83.8953 12.5574L83.6917 13.0636L81.3765 18.3076H80.6646L88.4764 0.572426H89.469L97.2555 18.3076H94.8897L92.5997 13.0636L92.3709 12.5574H92.3685Z" fill="var(--fill-0, #0F392A)"/>
<path id="Vector_5" d="M0.00122143 13.4248H0.568276C0.568276 15.8913 3.0968 17.7472 6.29626 17.7472C9.23786 17.7472 11.3276 16.3237 11.3276 14.3654C11.3276 12.2301 8.92866 11.2378 6.16794 10.1707C3.56242 9.12774 0.414292 7.88245 0.414292 4.80534C0.414292 1.98356 3.07236 0 6.658 0C9.93445 0 12.463 1.98356 12.463 4.60181H11.8959C11.8959 2.28826 9.7548 0.558818 6.91586 0.558818C4.07693 0.558818 2.19367 2.03414 2.19367 3.96592C2.19367 6.15301 4.77352 7.19477 7.32771 8.18715C10.3206 9.30598 13.1584 10.3995 13.1584 13.4248C13.1584 16.4502 10.4233 18.3073 6.60545 18.3073C2.78761 18.3073 0 16.1973 0 13.4248H0.00122143Z" fill="var(--fill-0, #0F392A)"/>
</g>
</svg>
