<svg preserveAspectRatio="none" width="100%" height="100%" overflow="visible" style="display: block;" viewBox="0 0 97.228 5.13226" fill="none" xmlns="http://www.w3.org/2000/svg">
<g id="Valley DST Management">
<path d="M4.44796 0.0712813H4.64755L2.45921 5.06098H2.18121L0 0.0712813H0.662917L2.559 4.41232L4.44796 0.0712813Z" fill="var(--fill-0, #0F392A)"/>
<path d="M8.3005 5.06098L7.65896 3.58545H5.16411L4.51545 5.06098H4.31587L6.5042 0.0712813H6.7822L8.96341 5.06098H8.3005ZM5.22114 3.44289H7.59481L6.41154 0.72707L5.22114 3.44289Z" fill="var(--fill-0, #0F392A)"/>
<path d="M10.4953 4.91842H13.1969V5.06098H9.86094V0.0712813H10.4953V4.91842Z" fill="var(--fill-0, #0F392A)"/>
<path d="M14.7625 4.91842H17.4641V5.06098H14.1281V0.0712813H14.7625V4.91842Z" fill="var(--fill-0, #0F392A)"/>
<path d="M19.0296 4.91842H21.9094V5.06098H18.3952V0.0712813H21.8381V0.213844H19.0296V2.45921H21.2679V2.60177H19.0296V4.91842Z" fill="var(--fill-0, #0F392A)"/>
<path d="M26.6133 0.0712813H26.82L24.9311 2.92254V5.06098H24.2967V2.92254L22.4077 0.0712813H23.1134L24.8669 2.72295L26.6133 0.0712813Z" fill="var(--fill-0, #0F392A)"/>
<path d="M31.4837 0.0712813C33.0091 0.0712813 34.1496 1.14763 34.1496 2.56613C34.1496 3.98463 33.0091 5.06098 31.4837 5.06098H29.6304V0.0712813H31.4837ZM31.391 4.91842C32.6527 4.91842 33.4867 3.98463 33.4867 2.56613C33.4867 1.14763 32.6527 0.213844 31.391 0.213844H30.2648V4.91842H31.391Z" fill="var(--fill-0, #0F392A)"/>
<path d="M36.6411 5.13226C35.6218 5.13226 34.8163 4.54063 34.8163 3.76366H34.9732C34.9732 4.45509 35.6717 4.97544 36.5556 4.97544C37.3682 4.97544 37.9456 4.57627 37.9456 4.0274C37.9456 3.42864 37.2827 3.15064 36.52 2.85126C35.8 2.559 34.9304 2.20972 34.9304 1.34722C34.9304 0.555995 35.6646 0 36.6554 0C37.5607 0 38.2592 0.555995 38.2592 1.29019H38.1024C38.1024 0.641533 37.5108 0.156819 36.7267 0.156819C35.9782 0.156819 35.4222 0.570251 35.4222 1.11199C35.4222 1.72501 36.135 2.01726 36.8407 2.29526C37.6676 2.6089 38.4517 2.91541 38.4517 3.76366C38.4517 4.59765 37.6961 5.13226 36.6411 5.13226Z" fill="var(--fill-0, #0F392A)"/>
<path d="M42.7576 0.0712813V0.213844H41.0825V5.06098H40.4481V0.213844H38.7588V0.0712813H42.7576Z" fill="var(--fill-0, #0F392A)"/>
<path d="M49.8985 0.0712813H50.5615V5.06098H49.927V0.38492L47.8813 3.76366H47.7672L45.7214 0.38492V5.06098H45.5504V0.0712813H46.2418L48.0737 3.08648L49.8985 0.0712813Z" fill="var(--fill-0, #0F392A)"/>
<path d="M55.4409 5.06098L54.7994 3.58545H52.3045L51.6558 5.06098H51.4563L53.6446 0.0712813H53.9226L56.1038 5.06098H55.4409ZM52.3615 3.44289H54.7352L53.5519 0.72707L52.3615 3.44289Z" fill="var(--fill-0, #0F392A)"/>
<path d="M60.9361 0.0712813H61.1071V5.06098H60.8648L57.1724 0.584508V5.06098H57.0013V0.0712813H57.5359L60.9361 4.2056V0.0712813Z" fill="var(--fill-0, #0F392A)"/>
<path d="M65.9799 5.06098L65.3384 3.58545H62.8436L62.1949 5.06098H61.9953L64.1837 0.0712813H64.4617L66.6429 5.06098H65.9799ZM62.9006 3.44289H65.2743L64.091 0.72707L62.9006 3.44289Z" fill="var(--fill-0, #0F392A)"/>
<path d="M71.0397 2.95105H71.6599V5.06098H71.5886L71.1823 4.55488C70.89 4.90416 70.2912 5.13226 69.5927 5.13226C68.0887 5.13226 66.941 4.0274 66.941 2.56613C66.941 1.10486 68.0744 0 69.6283 0C70.7118 0 71.5173 0.548867 71.5173 1.29019H71.3605C71.3605 0.648661 70.6904 0.171075 69.7709 0.171075C68.4308 0.171075 67.6039 1.10486 67.6039 2.58751C67.6039 4.03453 68.4094 4.9897 69.664 4.9897C70.3411 4.9897 70.8472 4.73308 71.0397 4.3054V2.95105Z" fill="var(--fill-0, #0F392A)"/>
<path d="M73.5488 4.91842H76.4285V5.06098H72.9144V0.0712813H76.3572V0.213844H73.5488V2.45921H75.787V2.60177H73.5488V4.91842Z" fill="var(--fill-0, #0F392A)"/>
<path d="M81.7454 0.0712813H82.4084V5.06098H81.774V0.38492L79.7282 3.76366H79.6141L77.5684 0.38492V5.06098H77.3973V0.0712813H78.0887L79.9206 3.08648L81.7454 0.0712813Z" fill="var(--fill-0, #0F392A)"/>
<path d="M84.408 4.91842H87.2878V5.06098H83.7736V0.0712813H87.2165V0.213844H84.408V2.45921H86.6463V2.60177H84.408V4.91842Z" fill="var(--fill-0, #0F392A)"/>
<path d="M92.1913 0.0712813H92.3624V5.06098H92.12L88.4276 0.584508V5.06098H88.2566V0.0712813H88.7912L92.1913 4.2056V0.0712813Z" fill="var(--fill-0, #0F392A)"/>
<path d="M97.228 0.0712813V0.213844H95.5529V5.06098H94.9185V0.213844H93.2292V0.0712813H97.228Z" fill="var(--fill-0, #0F392A)"/>
</g>
</svg>
