<svg preserveAspectRatio="none" width="100%" height="100%" overflow="visible" style="display: block;" viewBox="0 0 34.0004 33.9991" fill="none" xmlns="http://www.w3.org/2000/svg">
<g id="Group">
<path id="Vector" d="M16.9489 21.4563L17.4488 33.9991L16.3051 33.9684L16.9489 21.4563Z" fill="var(--fill-0, #B56B4B)"/>
<path id="Vector_2" d="M17.8426 21.4563L20.7708 33.5819L19.6432 33.7759L17.8426 21.4563Z" fill="var(--fill-0, #B56B4B)"/>
<path id="Vector_3" d="M18.8157 21.4563L23.944 32.5208L22.8779 32.9333L18.8157 21.4563Z" fill="var(--fill-0, #B56B4B)"/>
<path id="Vector_4" d="M19.9778 21.4563L26.8517 30.8614L25.8859 31.4728L19.9778 21.4563Z" fill="var(--fill-0, #B56B4B)"/>
<path id="Vector_5" d="M21.0096 21.0824L29.3768 28.6631L28.5485 29.4524L21.0096 21.0824Z" fill="var(--fill-0, #B56B4B)"/>
<path id="Vector_6" d="M21.0096 19.9631L31.4217 26.0138L30.7648 26.9503L21.0096 19.9631Z" fill="var(--fill-0, #B56B4B)"/>
<path id="Vector_7" d="M21.0096 18.6937L32.9084 23.0154L32.4473 24.0619L21.0096 18.6937Z" fill="var(--fill-0, #B56B4B)"/>
<path id="Vector_8" d="M21.0096 17.8965L33.7804 19.784L33.5328 20.9017L21.0096 17.8965Z" fill="var(--fill-0, #B56B4B)"/>
<path id="Vector_9" d="M21.0096 17.0896L34.0004 16.4443L33.9777 17.5878L21.0096 17.0896Z" fill="var(--fill-0, #B56B4B)"/>
<path id="Vector_10" d="M21.0096 16.2937L33.5636 13.1269L33.7642 14.2526L21.0096 16.2937Z" fill="var(--fill-0, #B56B4B)"/>
<path id="Vector_11" d="M20.1668 15.755L32.4862 9.95824L32.9036 11.0225L20.1668 15.755Z" fill="var(--fill-0, #B56B4B)"/>
<path id="Vector_12" d="M20.8876 14.3981L30.8062 7.06322L31.4242 8.02559L19.8603 15.1583L20.8876 14.3981Z" fill="var(--fill-0, #B56B4B)"/>
<path id="Vector_13" d="M19.4465 14.6338L28.5951 4.551L29.3894 5.37425L19.4465 14.6338Z" fill="var(--fill-0, #B56B4B)"/>
<path id="Vector_14" d="M18.9357 14.2007L25.9326 2.52149L26.8725 3.1733L18.9357 14.2007Z" fill="var(--fill-0, #B56B4B)"/>
<path id="Vector_15" d="M18.4351 13.6828L22.9212 1.05259L23.9712 1.50707L18.4351 13.6828Z" fill="var(--fill-0, #B56B4B)"/>
<path id="Vector_16" d="M17.7966 13.0976L19.6862 0.200493L20.8057 0.441483L17.7966 13.0976Z" fill="var(--fill-0, #B56B4B)"/>
<path id="Vector_17" d="M17.0804 12.4442L16.3459 0L17.4897 0.01617L17.0804 12.4442Z" fill="var(--fill-0, #B56B4B)"/>
<path id="Vector_18" d="M16.2864 13.0973L13.0282 0.455732L14.1526 0.248701L16.2864 13.0973Z" fill="var(--fill-0, #B56B4B)"/>
<path id="Vector_19" d="M15.6628 13.6411L9.86629 1.55265L10.9292 1.12889L15.6628 13.6411Z" fill="var(--fill-0, #B56B4B)"/>
<path id="Vector_20" d="M15.1419 14.144L6.98022 3.24762L7.93795 2.62492L15.1419 14.144Z" fill="var(--fill-0, #B56B4B)"/>
<path id="Vector_21" d="M14.621 14.5626L4.48236 5.47449L5.30095 4.67551L14.621 14.5626Z" fill="var(--fill-0, #B56B4B)"/>
<path id="Vector_22" d="M14.0683 14.9882L2.46721 8.14827L3.1127 7.2037L14.0683 14.9882Z" fill="var(--fill-0, #B56B4B)"/>
<path id="Vector_23" d="M13.377 15.4916L1.01396 11.165L1.46209 10.1121L13.377 15.4916Z" fill="var(--fill-0, #B56B4B)"/>
<path id="Vector_24" d="M12.8291 16.1839L0.181338 14.4064L0.414298 13.2855L12.8291 16.1839Z" fill="var(--fill-0, #B56B4B)"/>
<path id="Vector_25" d="M12.829 16.9451L0 17.7474L0.00970628 16.6039L12.829 16.9451Z" fill="var(--fill-0, #B56B4B)"/>
<path id="Vector_26" d="M13.0487 17.7178L0.695329 20.8232L0.480161 19.6991L13.0487 17.7178Z" fill="var(--fill-0, #B56B4B)"/>
<path id="Vector_27" d="M12.8295 18.7665L1.59242 24.2155L1.16209 23.1561L12.8295 18.7665Z" fill="var(--fill-0, #B56B4B)"/>
<path id="Vector_28" d="M12.7642 19.9213L3.30341 27.0912L2.67409 26.1369L12.7642 19.9213Z" fill="var(--fill-0, #B56B4B)"/>
<path id="Vector_29" d="M12.8965 21.2832L5.5469 29.5772L4.74287 28.7637L12.8965 21.2832Z" fill="var(--fill-0, #B56B4B)"/>
<path id="Vector_30" d="M13.9381 21.4563L8.23217 31.5747L7.28415 30.9342L13.9381 21.4563Z" fill="var(--fill-0, #B56B4B)"/>
<path id="Vector_31" d="M15.0924 21.469L11.2582 33.0075L10.2034 32.566L15.0924 21.469Z" fill="var(--fill-0, #B56B4B)"/>
<path id="Vector_32" d="M16.0704 21.4563L14.5043 33.8212L13.3832 33.5948L16.0704 21.4563Z" fill="var(--fill-0, #B56B4B)"/>
</g>
</svg>
